<svg data-v-423bf9ae="" xmlns="http://www.w3.org/2000/svg" viewBox="0 0 1058.982771432206 60" class="font"><!----><!----><!----><g data-v-423bf9ae="" id="a0233583-7885-48d1-9337-2155ee4f291b" fill="black" transform="matrix(4.92206705261137,0,0,4.92206705261137,-4.823636075223476,-18.211648090945936)"><path d="M9.18 12.05C9.18 13.22 8.71 14.22 7.83 14.92C7.08 15.50 6.12 15.82 5.08 15.82C4.05 15.82 3.08 15.50 2.34 14.92C1.46 14.22 0.98 13.22 0.98 12.05L0.98 4.07C0.98 3.92 1.11 3.78 1.26 3.78L2.90 3.78C3.05 3.78 3.16 3.92 3.16 4.07L3.16 12.05C3.16 13.58 4.89 13.64 5.08 13.64C5.28 13.64 7 13.58 7 12.05L7 4.07C7 3.92 7.13 3.78 7.27 3.78L8.92 3.78C9.06 3.78 9.18 3.92 9.18 4.07ZM19.21 15.89L13.19 9.32L13.19 15.53C13.19 15.68 13.08 15.81 12.92 15.81L11.28 15.81C11.13 15.81 11.00 15.68 11.00 15.53L11.00 3.70L17.02 10.26L17.02 4.06C17.02 3.91 17.15 3.78 17.29 3.78L18.94 3.78C19.08 3.78 19.21 3.91 19.21 4.06ZM26.56 15.82C23.24 15.82 20.54 13.12 20.54 9.80C20.54 6.48 23.24 3.78 26.56 3.78C29.88 3.78 32.58 6.48 32.58 9.80C32.58 13.12 29.88 15.82 26.56 15.82ZM26.56 5.96C24.44 5.96 22.72 7.69 22.72 9.80C22.72 11.91 24.44 13.62 26.56 13.62C28.67 13.62 30.38 11.91 30.38 9.80C30.38 7.69 28.67 5.96 26.56 5.96ZM42.11 5.67C42.11 5.82 41.99 5.95 41.85 5.95L37.34 5.95L39.62 8.69L40.40 8.69C40.60 8.69 40.74 8.81 40.74 8.96L40.74 10.60C40.74 10.75 40.60 10.88 40.40 10.88L36.09 10.88L36.09 15.51C36.09 15.67 35.98 15.81 35.83 15.81L34.19 15.81C34.03 15.81 33.91 15.67 33.91 15.51L33.91 8.69L36.76 8.69L33.91 5.25L33.91 4.06C33.91 3.89 34.03 3.77 34.19 3.77L41.85 3.77C41.99 3.77 42.11 3.89 42.11 4.06ZM51.72 5.67C51.72 5.82 51.59 5.95 51.45 5.95L46.94 5.95L49.22 8.69L50.01 8.69C50.20 8.69 50.34 8.81 50.34 8.96L50.34 10.60C50.34 10.75 50.20 10.88 50.01 10.88L45.70 10.88L45.70 15.51C45.70 15.67 45.58 15.81 45.43 15.81L43.79 15.81C43.64 15.81 43.51 15.67 43.51 15.51L43.51 8.69L46.37 8.69L43.51 5.25L43.51 4.06C43.51 3.89 43.64 3.77 43.79 3.77L51.45 3.77C51.59 3.77 51.72 3.89 51.72 4.06ZM57.50 5.95L57.50 13.61L59.33 13.61C59.53 13.61 59.68 13.73 59.68 13.89L59.68 15.53C59.68 15.68 59.53 15.81 59.33 15.81L53.40 15.81C53.24 15.81 53.12 15.68 53.12 15.53L53.12 13.89C53.12 13.73 53.24 13.61 53.40 13.61L55.30 13.61L55.30 5.95L53.40 5.95C53.24 5.95 53.12 5.84 53.12 5.68L53.12 4.05C53.12 3.89 53.24 3.77 53.40 3.77L59.33 3.77C59.53 3.77 59.68 3.89 59.68 4.05L59.68 5.68C59.68 5.84 59.53 5.95 59.33 5.95ZM68.75 15.29C69.12 15.12 69.47 14.92 69.80 14.69L69.80 14.67L69.82 14.67C69.82 14.66 69.82 14.66 69.83 14.66C69.94 14.56 69.96 14.38 69.85 14.27L68.80 13.02C68.71 12.91 68.54 12.88 68.43 12.95C68.43 12.96 68.42 12.96 68.42 12.96C66.82 14.04 64.62 13.76 63.35 12.26C61.98 10.64 62.17 8.22 63.78 6.85C65.06 5.77 66.85 5.66 68.21 6.45C68.32 6.51 68.43 6.50 68.52 6.43L69.83 5.32C69.94 5.22 69.96 5.04 69.85 4.91L69.82 4.89L69.78 4.86C67.58 3.29 64.51 3.35 62.37 5.17C59.82 7.32 59.51 11.14 61.67 13.68C63.45 15.78 66.36 16.35 68.75 15.29ZM75.99 5.95L75.99 13.61L77.83 13.61C78.02 13.61 78.18 13.73 78.18 13.89L78.18 15.53C78.18 15.68 78.02 15.81 77.83 15.81L71.89 15.81C71.74 15.81 71.61 15.68 71.61 15.53L71.61 13.89C71.61 13.73 71.74 13.61 71.89 13.61L73.79 13.61L73.79 5.95L71.89 5.95C71.74 5.95 71.61 5.84 71.61 5.68L71.61 4.05C71.61 3.89 71.74 3.77 71.89 3.77L77.83 3.77C78.02 3.77 78.18 3.89 78.18 4.05L78.18 5.68C78.18 5.84 78.02 5.95 77.83 5.95ZM87.99 11.16C87.99 11.00 87.86 10.89 87.71 10.89L86.79 10.89L85.08 4.05L85.06 3.98C85.02 3.88 84.92 3.81 84.81 3.81L82.98 3.81C82.87 3.81 82.77 3.88 82.73 3.98L82.71 4.06L79.87 15.41C79.87 15.43 79.87 15.44 79.86 15.44L79.86 15.50C79.86 15.67 79.98 15.79 80.12 15.79L81.82 15.79C81.93 15.79 82.04 15.71 82.07 15.60C82.07 15.58 82.08 15.57 82.08 15.57L82.70 13.06L85.09 13.06L85.71 15.55L85.72 15.60C85.76 15.71 85.86 15.79 85.97 15.79L87.67 15.79C87.82 15.79 87.93 15.67 87.93 15.50L87.93 15.47L87.92 15.40L87.33 13.06L87.71 13.06C87.86 13.06 87.99 12.95 87.99 12.80ZM83.24 10.89L83.90 8.30L84.55 10.89ZM96.38 15.54C96.38 15.69 96.22 15.81 96.03 15.81L90.09 15.81C89.94 15.81 89.81 15.69 89.81 15.54L89.81 4.12C89.81 3.93 89.94 3.78 90.09 3.78L91.73 3.78C91.88 3.78 91.99 3.93 91.99 4.12L91.99 13.62L96.03 13.62C96.22 13.62 96.38 13.75 96.38 13.90ZM111.61 4.79C110.78 4.13 109.65 3.78 108.32 3.78L104.50 3.78C104.34 3.78 104.22 3.91 104.22 4.06L104.22 5.18L106.37 8.69L104.22 8.69L104.22 15.53C104.22 15.68 104.34 15.81 104.50 15.81L106.13 15.81C106.29 15.81 106.40 15.68 106.40 15.53L106.40 10.89L108.35 10.89C109.66 10.88 110.80 10.54 111.61 9.88C112.43 9.23 112.90 8.30 112.90 7.34C112.90 6.36 112.43 5.43 111.61 4.79ZM107.27 5.96L108.32 5.96C109.89 5.96 110.71 6.65 110.71 7.34C110.71 7.92 110.10 8.51 108.91 8.67ZM122.43 15.37L120.20 11.42L119.90 10.89L119.83 10.77C121.86 10.32 122.91 8.82 122.91 7.35C122.91 6.38 122.46 5.46 121.69 4.82C120.90 4.14 119.80 3.79 118.52 3.79L114.44 3.79C114.28 3.79 114.16 3.92 114.16 4.06L114.16 5.17L114.30 5.42L114.30 5.43L116.16 8.71L114.16 8.71L114.16 15.54C114.16 15.69 114.28 15.82 114.44 15.82L116.07 15.82C116.21 15.82 116.34 15.69 116.34 15.54L116.34 10.89L117.39 10.89L117.68 11.42L120.08 15.65L120.11 15.69C120.15 15.76 120.23 15.82 120.33 15.82L122.21 15.82C122.36 15.82 122.47 15.69 122.47 15.53C122.47 15.48 122.47 15.44 122.44 15.40ZM118.37 8.19L117.12 5.98L118.52 5.98C120.04 5.98 120.71 6.69 120.71 7.35C120.71 7.91 120.20 8.53 119.07 8.68C118.94 8.69 118.80 8.71 118.66 8.71ZM129.56 15.82C126.24 15.82 123.54 13.12 123.54 9.80C123.54 6.48 126.24 3.78 129.56 3.78C132.87 3.78 135.58 6.48 135.58 9.80C135.58 13.12 132.87 15.82 129.56 15.82ZM129.56 5.96C127.44 5.96 125.72 7.69 125.72 9.80C125.72 11.91 127.44 13.62 129.56 13.62C131.67 13.62 133.38 11.91 133.38 9.80C133.38 7.69 131.67 5.96 129.56 5.96ZM140.18 15.81C141.54 15.82 142.90 15.37 144.02 14.45C146.57 12.35 146.94 8.55 144.83 5.99C143.65 4.55 141.92 3.79 140.18 3.79L137.19 3.79C137.03 3.79 136.91 3.92 136.91 4.06L136.91 15.47C136.91 15.67 137.03 15.81 137.19 15.81ZM143.15 7.38C144.49 9.00 144.26 11.42 142.62 12.75C141.92 13.34 141.05 13.64 140.18 13.62L139.09 13.62L139.09 5.98L140.18 5.98C141.29 5.98 142.39 6.45 143.15 7.38ZM155.81 12.05C155.81 13.22 155.33 14.22 154.45 14.92C153.71 15.50 152.74 15.82 151.70 15.82C150.67 15.82 149.70 15.50 148.96 14.92C148.08 14.22 147.60 13.22 147.60 12.05L147.60 4.07C147.60 3.92 147.73 3.78 147.88 3.78L149.52 3.78C149.67 3.78 149.79 3.92 149.79 4.07L149.79 12.05C149.79 13.58 151.51 13.64 151.70 13.64C151.90 13.64 153.62 13.58 153.62 12.05L153.62 4.07C153.62 3.92 153.75 3.78 153.89 3.78L155.54 3.78C155.68 3.78 155.81 3.92 155.81 4.07ZM166.00 15.29C166.36 15.12 166.71 14.92 167.05 14.69L167.05 14.67L167.06 14.67C167.06 14.66 167.06 14.66 167.08 14.66C167.19 14.56 167.20 14.38 167.09 14.27L166.04 13.02C165.96 12.91 165.79 12.88 165.68 12.95C165.68 12.96 165.66 12.96 165.66 12.96C164.07 14.04 161.87 13.76 160.59 12.26C159.22 10.64 159.42 8.22 161.03 6.85C162.30 5.77 164.09 5.66 165.45 6.45C165.56 6.51 165.68 6.50 165.76 6.43L167.08 5.32C167.19 5.22 167.20 5.04 167.09 4.91L167.06 4.89L167.02 4.86C164.82 3.29 161.76 3.35 159.61 5.17C157.07 7.32 156.76 11.14 158.91 13.68C160.69 15.78 163.60 16.35 166.00 15.29ZM176.43 5.68C176.43 5.84 176.27 5.96 176.09 5.96L173.42 5.96L173.42 15.47C173.42 15.65 173.29 15.81 173.15 15.81L171.50 15.81C171.36 15.81 171.23 15.65 171.23 15.47L171.23 5.96L168.50 5.96C168.35 5.96 168.22 5.84 168.22 5.68L168.22 4.05C168.22 3.89 168.35 3.78 168.50 3.78L176.09 3.78C176.27 3.78 176.43 3.89 176.43 4.05ZM182.14 5.95L182.14 13.61L183.97 13.61C184.17 13.61 184.32 13.73 184.32 13.89L184.32 15.53C184.32 15.68 184.17 15.81 183.97 15.81L178.04 15.81C177.88 15.81 177.76 15.68 177.76 15.53L177.76 13.89C177.76 13.73 177.88 13.61 178.04 13.61L179.94 13.61L179.94 5.95L178.04 5.95C177.88 5.95 177.76 5.84 177.76 5.68L177.76 4.05C177.76 3.89 177.88 3.77 178.04 3.77L183.97 3.77C184.17 3.77 184.32 3.89 184.32 4.05L184.32 5.68C184.32 5.84 184.17 5.95 183.97 5.95ZM190.97 15.82C187.66 15.82 184.95 13.12 184.95 9.80C184.95 6.48 187.66 3.78 190.97 3.78C194.29 3.78 196.99 6.48 196.99 9.80C196.99 13.12 194.29 15.82 190.97 15.82ZM190.97 5.96C188.86 5.96 187.14 7.69 187.14 9.80C187.14 11.91 188.86 13.62 190.97 13.62C193.09 13.62 194.80 11.91 194.80 9.80C194.80 7.69 193.09 5.96 190.97 5.96ZM206.53 15.89L200.51 9.32L200.51 15.53C200.51 15.68 200.40 15.81 200.24 15.81L198.60 15.81C198.45 15.81 198.32 15.68 198.32 15.53L198.32 3.70L204.34 10.26L204.34 4.06C204.34 3.91 204.47 3.78 204.61 3.78L206.26 3.78C206.40 3.78 206.53 3.91 206.53 4.06ZM216.13 12.28C216.13 12.38 216.12 13.22 215.59 14.07C215.10 14.88 214.09 15.83 212.03 15.83C210.41 15.83 209.13 15.15 208.45 13.93C208.12 13.34 208.00 12.77 207.96 12.40C207.96 12.38 207.94 12.35 207.94 12.32C207.94 12.18 208.05 12.05 208.19 12.04L209.92 12.04C210.03 12.05 210.11 12.12 210.14 12.24L210.14 12.25C210.14 12.26 210.15 12.28 210.15 12.29C210.18 12.46 210.25 12.70 210.39 12.91C210.69 13.40 211.23 13.65 212.03 13.65C212.88 13.65 213.43 13.41 213.72 12.94C213.92 12.61 213.95 12.26 213.95 12.26C213.95 11.87 213.85 11.41 213.12 11.12C212.59 10.89 212.03 10.88 212.03 10.88C211.93 10.88 211.04 10.86 210.11 10.50C208.70 9.93 207.93 8.81 207.93 7.34C207.93 7.20 207.96 5.89 208.98 4.87C209.71 4.13 210.74 3.75 212.03 3.75C212.86 3.75 214.05 3.93 214.96 4.86C215.84 5.75 216.06 6.89 216.12 7.45L216.12 7.48C216.12 7.64 216.01 7.77 215.85 7.77L214.16 7.77C214.05 7.76 213.95 7.66 213.92 7.55L213.92 7.50C213.88 7.31 213.81 7.03 213.67 6.75C213.47 6.40 213.09 5.94 212.03 5.94C211.34 5.94 210.84 6.09 210.52 6.41C210.14 6.79 210.11 7.34 210.11 7.34C210.11 7.73 210.21 8.18 210.94 8.47C211.47 8.68 212.03 8.69 212.03 8.69C212.13 8.69 213.02 8.71 213.95 9.09C215.36 9.67 216.13 10.81 216.13 12.28Z"></path></g><!----><!----></svg>